<svg width="48" height="48" viewBox="0 0 48 48" fill="none" xmlns="http://www.w3.org/2000/svg">
<path d="M10.0725 44.25C8.53124 44.1908 7.06899 43.5525 5.97765 42.4626C4.88631 41.3726 4.24617 39.9112 4.18501 38.37L4.13251 37.5H43.8825L43.83 38.3025C43.7853 39.858 43.1504 41.3383 42.0543 42.4429C40.9581 43.5474 39.4827 44.1935 37.9275 44.25H10.0725Z" fill="#E09742"/>
<path d="M7.12498 37.5C6.7123 37.501 6.30346 37.4207 5.92182 37.2637C5.54018 37.1067 5.1932 36.876 4.90069 36.5849C4.60819 36.2938 4.37589 35.9479 4.21705 35.567C4.05822 35.1861 3.97596 34.7777 3.97498 34.365V34.2525C3.97497 33.8392 4.05651 33.4299 4.2149 33.0482C4.37329 32.6664 4.60544 32.3197 4.89804 32.0278C5.19065 31.7359 5.53796 31.5045 5.92009 31.3471C6.30222 31.1896 6.71167 31.109 7.12498 31.11H24.8175L29.25 35.1075C29.3698 35.215 29.524 35.2762 29.685 35.28C29.8499 35.2736 30.008 35.2129 30.135 35.1075L34.575 31.1025H40.875C41.2883 31.1015 41.6977 31.1821 42.0799 31.3396C42.462 31.497 42.8093 31.7284 43.1019 32.0203C43.3945 32.3122 43.6267 32.6589 43.785 33.0407C43.9434 33.4224 44.025 33.8317 44.025 34.245V34.3575C44.025 34.7708 43.9434 35.1801 43.785 35.5618C43.6267 35.9436 43.3945 36.2903 43.1019 36.5822C42.8093 36.8741 42.462 37.1055 42.0799 37.2629C41.6977 37.4204 41.2883 37.501 40.875 37.5H7.12498ZM7.12498 29.04C6.29084 29.04 5.49076 28.7092 4.90024 28.12C4.30971 27.5309 3.97696 26.7316 3.97498 25.8975V25.785C3.97696 24.9509 4.30971 24.1516 4.90024 23.5625C5.49076 22.9733 6.29084 22.6425 7.12498 22.6425H40.875C41.7091 22.6425 42.5092 22.9733 43.0997 23.5625C43.6902 24.1516 44.023 24.9509 44.025 25.785V25.8975C44.023 26.7316 43.6902 27.5309 43.0997 28.12C42.5092 28.7092 41.7091 29.04 40.875 29.04H7.12498Z" fill="#C61E24"/>
<path d="M24.825 31.1025H5.52753V29.025H42.4725V31.1025H34.59L29.7075 35.505L24.825 31.1025Z" fill="#E5E04F"/>
<path d="M37.71 28.65C37.0733 28.6508 36.4429 28.5245 35.8556 28.2785C35.2683 28.0325 34.7361 27.6718 34.29 27.2175C33.842 26.7624 33.3078 26.4009 32.7188 26.1542C32.1297 25.9075 31.4974 25.7805 30.8588 25.7805C30.2201 25.7805 29.5878 25.9075 28.9987 26.1542C28.4097 26.4009 27.8756 26.7624 27.4275 27.2175C26.9805 27.6727 26.4471 28.0339 25.8584 28.2799C25.2698 28.5259 24.638 28.6518 24 28.65C23.2935 28.6598 22.5947 28.503 21.96 28.1925C21.4664 27.9245 21.0058 27.5998 20.5875 27.225C20.1395 26.766 19.6041 26.4014 19.0128 26.1527C18.4215 25.9041 17.7864 25.7765 17.145 25.7775C16.5067 25.7732 15.874 25.8978 15.2851 26.144C14.6961 26.3901 14.1629 26.7527 13.7175 27.21C13.2714 27.6644 12.7392 28.0254 12.152 28.2718C11.5648 28.5183 10.9343 28.6452 10.2975 28.6452C9.66068 28.6452 9.03025 28.5183 8.44304 28.2718C7.85583 28.0254 7.32362 27.6644 6.8775 27.21C6.26833 26.6186 5.52831 26.1793 4.7175 25.9275C4.6222 25.8964 4.52431 25.8738 4.425 25.86L3.81 25.74V25.11C3.78218 24.4848 3.96145 23.8679 4.32 23.355C4.50838 23.1092 4.7534 22.9126 5.03418 22.782C5.31496 22.6515 5.62317 22.5907 5.9325 22.605H39.2175C39.4875 22.605 39.78 22.605 40.14 22.605H42.06C42.3702 22.592 42.6791 22.6533 42.9609 22.7837C43.2426 22.9142 43.4892 23.11 43.68 23.355C44.0329 23.8703 44.2092 24.486 44.1825 25.11V25.74L43.5675 25.86C43.4884 25.8695 43.4105 25.8871 43.335 25.9125C42.5065 26.1578 41.7498 26.6004 41.13 27.2025C40.6842 27.6582 40.1523 28.0208 39.5652 28.2692C38.9781 28.5177 38.3475 28.6471 37.71 28.65Z" fill="#88A50F"/>
<path d="M7.08751 22.635H5.95501C5.67732 22.6392 5.40225 22.5807 5.15032 22.4639C4.89839 22.347 4.67609 22.1748 4.50001 21.96C4.32769 21.7454 4.20255 21.4969 4.13276 21.2307C4.06298 20.9645 4.05011 20.6865 4.09501 20.415C4.946 15.7643 7.40093 11.5594 11.0325 8.53208C14.664 5.50476 19.2421 3.8468 23.97 3.8468C28.6979 3.8468 33.276 5.50476 36.9076 8.53208C40.5391 11.5594 42.994 15.7643 43.845 20.415C43.8995 20.6811 43.897 20.9557 43.8375 21.2208C43.778 21.4858 43.663 21.7352 43.5 21.9525C43.3247 22.1668 43.1038 22.3393 42.8534 22.4574C42.603 22.5755 42.3294 22.6361 42.0525 22.635H7.08751Z" fill="#E09742"/>
<path d="M18.435 12C18.4409 11.7907 18.5084 11.5879 18.6289 11.4167C18.7495 11.2456 18.9178 11.1137 19.1128 11.0377C19.3079 10.9617 19.521 10.9448 19.7256 10.9893C19.9302 11.0337 20.1171 11.1374 20.2631 11.2875C20.409 11.4375 20.5075 11.6273 20.5462 11.833C20.5849 12.0387 20.5622 12.2513 20.4808 12.4442C20.3993 12.6371 20.2629 12.8016 20.0885 12.9174C19.914 13.0331 19.7094 13.0949 19.5 13.095C19.3582 13.093 19.2181 13.0632 19.0878 13.0071C18.9576 12.951 18.8396 12.8698 18.7407 12.7681C18.6418 12.6664 18.5639 12.5463 18.5115 12.4145C18.459 12.2827 18.433 12.1418 18.435 12ZM28.5 13.095C28.7157 13.0995 28.9278 13.0397 29.1094 12.9233C29.291 12.8068 29.4339 12.639 29.5199 12.4412C29.6059 12.2434 29.6311 12.0244 29.5923 11.8122C29.5535 11.6 29.4525 11.4041 29.3021 11.2495C29.1517 11.0949 28.9587 10.9885 28.7476 10.9438C28.5366 10.8991 28.317 10.9182 28.1169 10.9987C27.9167 11.0792 27.745 11.2173 27.6236 11.3956C27.5022 11.5739 27.4366 11.7843 27.435 12C27.432 12.1421 27.4573 12.2834 27.5094 12.4156C27.5615 12.5478 27.6394 12.6684 27.7385 12.7703C27.8375 12.8722 27.9559 12.9534 28.0866 13.0091C28.2174 13.0648 28.3579 13.094 28.5 13.095ZM15 16.845C15.2136 16.8479 15.4232 16.7875 15.6025 16.6713C15.7817 16.5551 15.9224 16.3884 16.0069 16.1922C16.0914 15.996 16.1157 15.7792 16.077 15.5691C16.0382 15.3591 15.938 15.1652 15.7891 15.0121C15.6402 14.859 15.4492 14.7535 15.2403 14.7089C15.0314 14.6643 14.814 14.6827 14.6156 14.7617C14.4171 14.8406 14.2465 14.9767 14.1254 15.1526C14.0043 15.3285 13.938 15.5364 13.935 15.75C13.93 15.8933 13.9538 16.0362 14.005 16.1702C14.0561 16.3042 14.1337 16.4266 14.233 16.53C14.3323 16.6335 14.4513 16.7161 14.5831 16.7727C14.7148 16.8294 14.8566 16.8591 15 16.86V16.845ZM33 16.845C33.2136 16.8479 33.4233 16.7875 33.6025 16.6713C33.7817 16.5551 33.9224 16.3884 34.0069 16.1922C34.0914 15.996 34.1157 15.7792 34.077 15.5691C34.0382 15.3591 33.938 15.1652 33.7891 15.0121C33.6402 14.859 33.4492 14.7535 33.2403 14.7089C33.0314 14.6643 32.814 14.6827 32.6156 14.7617C32.4171 14.8406 32.2465 14.9767 32.1254 15.1526C32.0043 15.3285 31.938 15.5364 31.935 15.75C31.93 15.8933 31.9538 16.0362 32.005 16.1702C32.0561 16.3042 32.1337 16.4266 32.233 16.53C32.3323 16.6335 32.4513 16.7161 32.5831 16.7727C32.7148 16.8294 32.8566 16.8591 33 16.86V16.845ZM24 16.845C24.2136 16.8479 24.4233 16.7875 24.6025 16.6713C24.7817 16.5551 24.9224 16.3884 25.0069 16.1922C25.0914 15.996 25.1157 15.7792 25.077 15.5691C25.0382 15.3591 24.938 15.1652 24.7891 15.0121C24.6402 14.859 24.4492 14.7535 24.2403 14.7089C24.0314 14.6643 23.814 14.6827 23.6156 14.7617C23.4171 14.8406 23.2465 14.9767 23.1254 15.1526C23.0043 15.3285 22.938 15.5364 22.935 15.75C22.93 15.8933 22.9538 16.0362 23.005 16.1702C23.0561 16.3042 23.1337 16.4266 23.233 16.53C23.3323 16.6335 23.4513 16.7161 23.5831 16.7727C23.7148 16.8294 23.8566 16.8591 24 16.86V16.845ZM43.215 28.9275C43.219 28.9599 43.219 28.9926 43.215 29.025V31.1325C43.6986 31.4926 44.0909 31.9611 44.3606 32.5004C44.6302 33.0396 44.7696 33.6346 44.7675 34.2375V34.3575C44.769 35.2674 44.4504 36.1488 43.8675 36.8475C44.0738 36.9204 44.2523 37.0555 44.3786 37.2342C44.5049 37.4128 44.5726 37.6262 44.5725 37.845C44.5725 41.7675 41.5725 44.955 37.92 44.955H10.0725C6.40502 44.955 3.42002 41.7675 3.42002 37.845C3.41992 37.6262 3.48768 37.4128 3.61394 37.2342C3.7402 37.0555 3.91877 36.9204 4.12502 36.8475C3.54217 36.1488 3.22358 35.2674 3.22502 34.3575V34.2375C3.22297 33.6346 3.36236 33.0396 3.63198 32.5004C3.90161 31.9611 4.29397 31.4926 4.77752 31.1325V29.025C4.77352 28.9926 4.77352 28.9599 4.77752 28.9275C4.43595 28.6509 4.14642 28.3157 3.92252 27.9375C3.64004 27.5107 3.45562 27.0266 3.38252 26.52C3.18478 26.0829 3.07275 25.6119 3.05252 25.1325C2.99666 24.3266 3.2337 23.5276 3.72002 22.8825C3.8171 22.7559 3.92501 22.6379 4.04252 22.53C4.00502 22.53 3.97502 22.455 3.93752 22.4175C3.68949 22.1216 3.50981 21.7745 3.41128 21.4012C3.31276 21.0278 3.29781 20.6373 3.36752 20.2575C4.23638 15.4198 6.77815 11.0414 10.5484 7.88794C14.3186 4.73452 19.0774 3.00674 23.9925 3.00674C28.9077 3.00674 33.6664 4.73452 37.4367 7.88794C41.2069 11.0414 43.7487 15.4198 44.6175 20.2575C44.6872 20.6373 44.6723 21.0278 44.5738 21.4012C44.4752 21.7745 44.2956 22.1216 44.0475 22.4175C44.01 22.455 43.98 22.5 43.9425 22.53C44.06 22.6379 44.1679 22.7559 44.265 22.8825C44.7513 23.5276 44.9884 24.3266 44.9325 25.1325C44.9123 25.6119 44.8003 26.0829 44.6025 26.52C44.5294 27.0266 44.345 27.5107 44.0625 27.9375C43.8409 28.3151 43.5539 28.6503 43.215 28.9275ZM5.09252 21.48C5.19536 21.6099 5.32653 21.7146 5.47601 21.7861C5.62549 21.8576 5.78933 21.894 5.95502 21.8925H42.045C42.2107 21.894 42.3746 21.8576 42.524 21.7861C42.6735 21.7146 42.8047 21.6099 42.9075 21.48C43.0129 21.3504 43.089 21.1995 43.1304 21.0376C43.1719 20.8757 43.1777 20.7068 43.1475 20.5425C42.3396 16.0524 39.9794 11.989 36.4794 9.06258C32.9794 6.13616 28.5623 4.53283 24 4.53283C19.4378 4.53283 15.0207 6.13616 11.5207 9.06258C8.02068 11.989 5.66046 16.0524 4.85252 20.5425C4.82234 20.7068 4.82817 20.8757 4.8696 21.0376C4.91104 21.1995 4.98709 21.3504 5.09252 21.48ZM43.065 38.2875H4.93502C4.98126 39.6382 5.53648 40.9214 6.48932 41.8798C7.44216 42.8382 8.72215 43.4009 10.0725 43.455H37.9275C39.2779 43.4009 40.5579 42.8382 41.5107 41.8798C42.4636 40.9214 43.0188 39.6382 43.065 38.2875ZM40.875 31.845H34.875L30.645 35.67C30.3864 35.9019 30.0512 36.0302 29.7038 36.0302C29.3564 36.0302 29.0212 35.9019 28.7625 35.67L24.525 31.845H7.12502C6.4898 31.845 5.88049 32.0968 5.43061 32.5453C4.98074 32.9938 4.72701 33.6023 4.72502 34.2375V34.3575C4.72701 34.9927 4.98074 35.6012 5.43061 36.0497C5.88049 36.4982 6.4898 36.75 7.12502 36.75H40.875C41.5102 36.75 42.1196 36.4982 42.5694 36.0497C43.0193 35.6012 43.273 34.9927 43.275 34.3575V34.2375C43.273 33.6023 43.0193 32.9938 42.5694 32.5453C42.1196 32.0968 41.5102 31.845 40.875 31.845ZM6.27752 29.775V30.345H25.11L26.775 31.845L29.7075 34.5L32.64 31.845L34.305 30.345H41.7225V29.775H6.27752ZM20.7 28.275C20.4825 28.125 20.28 27.945 20.085 27.7875C19.706 27.389 19.25 27.0718 18.7446 26.855C18.2392 26.6382 17.695 26.5264 17.145 26.5264C16.5951 26.5264 16.0509 26.6382 15.5455 26.855C15.0401 27.0718 14.584 27.389 14.205 27.7875C14.01 27.945 13.8075 28.125 13.59 28.275H20.7ZM34.41 28.275C34.1925 28.125 33.99 27.945 33.795 27.7875C33.416 27.389 32.96 27.0718 32.4546 26.855C31.9492 26.6382 31.405 26.5264 30.855 26.5264C30.3051 26.5264 29.7609 26.6382 29.2555 26.855C28.7501 27.0718 28.294 27.389 27.915 27.7875C27.72 27.945 27.5175 28.125 27.3 28.275H34.41ZM42.9675 26.8425C42.4773 27.0957 42.0232 27.4135 41.6175 27.7875C41.4225 27.945 41.22 28.1175 41.01 28.2675C41.4331 28.224 41.8371 28.0693 42.1809 27.819C42.5248 27.5687 42.7962 27.2318 42.9675 26.8425ZM6.96752 28.2675C6.75752 28.1175 6.55502 27.945 6.36002 27.7875C5.95434 27.4135 5.50028 27.0957 5.01002 26.8425C5.18321 27.2349 5.45807 27.5738 5.80617 27.8244C6.15427 28.0749 6.56298 28.2279 6.99002 28.2675H6.96752ZM43.4325 25.125C43.4531 24.6616 43.33 24.2032 43.08 23.8125C42.9545 23.6638 42.7947 23.5479 42.6144 23.4747C42.4341 23.4016 42.2387 23.3733 42.045 23.3925H5.95502C5.76138 23.3733 5.56598 23.4016 5.38568 23.4747C5.20537 23.5479 5.04556 23.6638 4.92002 23.8125C4.67005 24.2032 4.54693 24.6616 4.56752 25.125C4.68752 25.125 4.80002 25.1775 4.90502 25.215C5.82013 25.4887 6.65779 25.9744 7.35002 26.6325C7.73024 27.0302 8.18712 27.3468 8.69307 27.5631C9.19901 27.7793 9.74354 27.8908 10.2938 27.8908C10.844 27.8908 11.3885 27.7793 11.8945 27.5631C12.4004 27.3468 12.8573 27.0302 13.2375 26.6325C14.2779 25.6038 15.682 25.0269 17.145 25.0269C18.6081 25.0269 20.0122 25.6038 21.0525 26.6325C21.4299 26.9737 21.8451 27.2706 22.29 27.5175C22.8209 27.7801 23.408 27.9089 24 27.8925C24.5511 27.8937 25.0967 27.7825 25.6035 27.5659C26.1102 27.3493 26.5675 27.0317 26.9475 26.6325C27.9879 25.6038 29.3919 25.0269 30.855 25.0269C32.3181 25.0269 33.7221 25.6038 34.7625 26.6325C35.1427 27.0302 35.5996 27.3468 36.1056 27.5631C36.6115 27.7793 37.156 27.8908 37.7063 27.8908C38.2565 27.8908 38.801 27.7793 39.307 27.5631C39.8129 27.3468 40.2698 27.0302 40.65 26.6325C41.3423 25.9744 42.1799 25.4887 43.095 25.215C43.2 25.1775 43.3125 25.155 43.4325 25.125Z" fill="black"/>
</svg>
