<svg width="13" height="9" viewBox="0 0 13 9" fill="none" xmlns="http://www.w3.org/2000/svg">
<path d="M6.05473 7.33838C6.10442 7.38834 6.17092 7.42919 6.24848 7.45742C6.32604 7.48564 6.41236 7.50039 6.49998 7.50039C6.58761 7.50039 6.67392 7.48564 6.75148 7.45742C6.82905 7.42919 6.89554 7.38834 6.94523 7.33838L11.8202 2.46338C11.8767 2.40715 11.9097 2.34129 11.9159 2.27295C11.9221 2.20462 11.9011 2.13642 11.8552 2.07577C11.8093 2.01512 11.7402 1.96434 11.6556 1.92895C11.5709 1.89355 11.4739 1.87489 11.375 1.875H1.62498C1.52631 1.87528 1.42962 1.89418 1.34531 1.92966C1.26099 1.96514 1.19224 2.01586 1.14646 2.07637C1.10067 2.13688 1.07957 2.20489 1.08543 2.27307C1.09129 2.34126 1.1239 2.40706 1.17973 2.46338L6.05473 7.33838Z" fill="black"/>
</svg>
