<svg width="25" height="25" viewBox="0 0 25 25" fill="none" xmlns="http://www.w3.org/2000/svg">
<path fill-rule="evenodd" clip-rule="evenodd" d="M17.0052 15.5198L22.6094 21.1239C22.8063 21.3211 22.917 21.5884 22.9169 21.867C22.9168 22.1457 22.806 22.4129 22.6088 22.6099C22.4117 22.8069 22.1444 22.9175 21.8658 22.9174C21.5871 22.9173 21.3199 22.8065 21.1229 22.6094L15.5187 17.0052C13.8434 18.3028 11.7367 18.9134 9.62721 18.7129C7.51767 18.5123 5.56378 17.5156 4.16299 15.9256C2.76221 14.3356 2.01977 12.2717 2.08671 10.1537C2.15365 8.0357 3.02494 6.02276 4.52333 4.52437C6.02172 3.02598 8.03466 2.15469 10.1526 2.08775C12.2706 2.02081 14.3346 2.76325 15.9246 4.16403C17.5146 5.56481 18.5113 7.51871 18.7118 9.62825C18.9124 11.7378 18.3017 13.8445 17.0042 15.5198H17.0052ZM10.4167 16.6667C12.0743 16.6667 13.664 16.0082 14.8361 14.8361C16.0082 13.664 16.6667 12.0743 16.6667 10.4167C16.6667 8.75905 16.0082 7.16934 14.8361 5.99724C13.664 4.82514 12.0743 4.16665 10.4167 4.16665C8.75906 4.16665 7.16934 4.82514 5.99724 5.99724C4.82514 7.16934 4.16666 8.75905 4.16666 10.4167C4.16666 12.0743 4.82514 13.664 5.99724 14.8361C7.16934 16.0082 8.75906 16.6667 10.4167 16.6667Z" fill="black" fill-opacity="0.3"/>
</svg>
