<svg width="35" height="36" viewBox="0 0 35 36" fill="none" xmlns="http://www.w3.org/2000/svg">
<path d="M30.9363 28.6653C32.7314 26.5055 33.98 23.945 34.5763 21.2005C35.1726 18.4561 35.0991 15.6084 34.3621 12.8983C33.6251 10.1883 32.2462 7.69561 30.3421 5.63117C28.4379 3.56673 26.0646 1.99126 23.4228 1.03805C20.7811 0.0848392 17.9486 -0.21808 15.165 0.15492C12.3813 0.52792 9.72853 1.56587 7.4309 3.18095C5.13327 4.79604 3.25844 6.94075 1.96499 9.43366C0.671547 11.9266 -0.00245324 14.6943 6.70956e-06 17.5028C0.000950677 21.5856 1.43969 25.5375 4.06376 28.6653L4.03876 28.6866C4.12626 28.7916 4.22626 28.8816 4.31626 28.9853C4.42876 29.1141 4.55001 29.2353 4.66626 29.3603C5.01626 29.7403 5.37626 30.1053 5.75376 30.4478C5.86876 30.5528 5.98751 30.6503 6.10376 30.7503C6.50376 31.0953 6.91501 31.4228 7.34126 31.7278C7.39626 31.7653 7.44626 31.8141 7.50126 31.8528V31.8378C10.4289 33.898 13.9214 35.0037 17.5013 35.0037C21.0811 35.0037 24.5736 33.898 27.5013 31.8378V31.8528C27.5563 31.8141 27.605 31.7653 27.6613 31.7278C28.0863 31.4216 28.4988 31.0953 28.8988 30.7503C29.015 30.6503 29.1338 30.5516 29.2488 30.4478C29.6263 30.1041 29.9863 29.7403 30.3363 29.3603C30.4525 29.2353 30.5725 29.1141 30.6863 28.9853C30.775 28.8816 30.8763 28.7916 30.9638 28.6853L30.9363 28.6653ZM17.5 7.50282C18.6125 7.50282 19.7001 7.83272 20.6251 8.4508C21.5501 9.06889 22.2711 9.94739 22.6968 10.9752C23.1226 12.0031 23.234 13.1341 23.0169 14.2252C22.7999 15.3163 22.2642 16.3186 21.4775 17.1053C20.6908 17.892 19.6885 18.4277 18.5974 18.6447C17.5062 18.8618 16.3752 18.7504 15.3474 18.3246C14.3196 17.8989 13.4411 17.1779 12.823 16.2529C12.2049 15.3279 11.875 14.2403 11.875 13.1278C11.875 11.636 12.4676 10.2052 13.5225 9.15034C14.5774 8.09545 16.0082 7.50282 17.5 7.50282ZM7.50876 28.6653C7.53044 27.024 8.19744 25.4573 9.36545 24.304C10.5335 23.1507 12.1086 22.5037 13.75 22.5028H21.25C22.8914 22.5037 24.4665 23.1507 25.6346 24.304C26.8026 25.4573 27.4696 27.024 27.4913 28.6653C24.7498 31.1357 21.1903 32.5029 17.5 32.5029C13.8097 32.5029 10.2502 31.1357 7.50876 28.6653Z" fill="black"/>
</svg>
